<svg width="1526" height="922" viewBox="0 0 1526 922" fill="none" xmlns="http://www.w3.org/2000/svg">
<path d="M0 0H660V461H0V0Z" fill="#3D405B"/>
<path d="M660 461H-1.43051e-05V922H660V461Z" fill="#3D405B"/>
<path d="M1525 461H657V922H1525V461Z" fill="#E07A5F"/>
<path d="M1526 0H664V461H1526V0Z" fill="#E07A5F"/>
<g clip-path="url(#clip0_487_17915)">
<path d="M811.728 0L814.419 21.9743C817.206 44.1023 822.588 88.051 787.508 131.846C752.427 175.641 676.884 219.282 647.57 263.077C618.256 306.872 635.172 350.821 656.797 394.923C678.422 439.026 704.756 482.974 697.163 527.077C689.667 571.179 648.339 615.128 632.192 658.923C615.95 702.718 624.984 746.359 645.648 790.154C666.312 833.949 698.605 877.898 714.848 900.026L730.995 922" stroke="#3D405B" stroke-width="70" stroke-linecap="round"/>
<rect x="624" width="168" height="124" fill="#3D405B"/>
<rect x="634" y="104" width="120" height="101" fill="#3D405B"/>
<rect x="624" y="461" width="66" height="87" fill="#3D405B"/>
<rect x="637" y="868" width="53" height="54" fill="#3D405B"/>
</g>
<defs>
<clipPath id="clip0_487_17915">
<rect width="865" height="922" fill="white" transform="translate(459)"/>
</clipPath>
</defs>
</svg>
