<svg width="714" height="713" viewBox="0 0 714 713" fill="none" xmlns="http://www.w3.org/2000/svg">
<path fill-rule="evenodd" clip-rule="evenodd" d="M521.209 1.95286C594.932 -10.1207 691.418 57.827 693.848 134.038C696.805 226.819 529.08 263.484 532.503 356.233C536.233 457.347 739.479 487.95 710.513 585.697C685.709 669.4 543.822 568.514 462.203 593.461C400.222 612.406 365.876 734.216 307.421 708.906C240.308 679.848 295.624 550.094 243.182 498.63C195.65 451.985 99.1908 505.636 52.1866 458.432C4.12976 410.17 -6.21764 329.092 5.20172 259.637C17.2063 186.621 44.9826 86.0738 115.761 71.7568C201.227 54.4689 252.253 207.078 338.091 192.3C424.59 177.408 434.618 16.1338 521.209 1.95286Z" fill="#E07A5F"/>
</svg>
