<svg width="1440" height="148" viewBox="0 0 1440 148" fill="none" xmlns="http://www.w3.org/2000/svg">
<path d="M0 40.5546L34.4 40.8336C68.8 40.9731 137.6 41.5309 206.08 33.1627C274.72 24.7944 342.88 7.49998 411.52 3.17637C480 -1.2867 548.8 7.08153 617.28 6.80259C685.92 6.66312 754.08 -2.26302 822.72 2.20006C891.2 6.66314 960 24.2365 1028.48 33.1627C1097.12 41.9494 1165.28 41.9493 1233.92 41.252C1302.4 40.5546 1371.2 39.1599 1405.6 38.4626L1440 37.7652V147.947H1405.6C1371.2 147.947 1302.4 147.947 1233.92 147.947C1165.28 147.947 1097.12 147.947 1028.48 147.947C960 147.947 891.2 147.947 822.72 147.947C754.08 147.947 685.92 147.947 617.28 147.947C548.8 147.947 480 147.947 411.52 147.947C342.88 147.947 274.72 147.947 206.08 147.947C137.6 147.947 68.8 147.947 34.4 147.947H0V40.5546Z" fill="#D03C62"/>
<path d="M0 43.3438L34.4 46.5516C68.8 49.8989 137.6 56.3146 206.08 66.0776C274.72 75.8406 342.88 88.9509 411.52 92.5771C480 96.3428 548.8 90.764 617.28 85.6036C685.92 80.5826 754.08 75.8406 822.72 70.1223C891.2 64.2645 960 57.2909 1028.48 60.4987C1097.12 63.8461 1165.28 77.2353 1233.92 81.6984C1302.4 86.1615 1371.2 81.4195 1405.6 79.1879L1440 76.8169V147.947H1405.6C1371.2 147.947 1302.4 147.947 1233.92 147.947C1165.28 147.947 1097.12 147.947 1028.48 147.947C960 147.947 891.2 147.947 822.72 147.947C754.08 147.947 685.92 147.947 617.28 147.947C548.8 147.947 480 147.947 411.52 147.947C342.88 147.947 274.72 147.947 206.08 147.947C137.6 147.947 68.8 147.947 34.4 147.947H0V43.3438Z" fill="#C62368"/>
</svg>
