<svg width="470" height="547" viewBox="0 0 470 547" fill="none" xmlns="http://www.w3.org/2000/svg">
<path fill-rule="evenodd" clip-rule="evenodd" d="M277.209 -164.047C350.932 -176.121 447.419 -108.173 449.848 -31.962C452.806 60.8186 285.08 97.4839 288.503 190.233C292.234 291.347 495.479 321.95 466.513 419.697C441.709 503.4 299.822 402.514 218.203 427.461C156.222 446.406 121.877 568.216 63.4208 542.906C-3.69224 513.847 51.6238 384.094 -0.818292 332.63C-48.3497 285.985 -144.809 339.636 -191.813 292.432C-239.87 244.17 -250.218 163.092 -238.798 93.6366C-226.794 20.6214 -199.017 -79.9263 -128.239 -94.2431C-42.7734 -111.531 8.25279 41.0784 94.0913 26.3C180.59 11.4081 190.618 -149.866 277.209 -164.047Z" fill="#E07A5F"/>
</svg>
