<svg width="584" height="595" viewBox="0 0 584 595" fill="none" xmlns="http://www.w3.org/2000/svg">
<path fill-rule="evenodd" clip-rule="evenodd" d="M365.274 44.9272C426.798 -10.2839 561.901 -16.2063 613.856 42.655C677.108 114.314 543.131 247.208 606.799 318.554C676.21 396.335 887.463 294.729 923.903 390.088C955.107 471.746 755.804 479.69 695.238 549.987C649.245 603.371 696.304 721.121 624.786 737.268C542.677 755.806 510.18 618.78 427.277 610.487C352.138 602.971 296.31 705.193 221.302 696.907C144.615 688.436 82.0343 630.622 47.5165 568.537C11.2297 503.27 -28.1555 406.429 29.1344 351.264C98.3131 284.652 245.802 373.937 316.967 309.081C388.679 243.728 293.012 109.775 365.274 44.9272Z" fill="#E07A5F"/>
</svg>
