<svg width="1622" height="679" viewBox="0 0 1622 679" fill="none" xmlns="http://www.w3.org/2000/svg">
<path d="M0 109.966L38.7478 93.3461C77.4956 76.7261 154.991 43.4861 232.126 33.6988C309.442 23.7268 386.216 37.3921 463.532 54.9354C540.667 72.4788 618.162 93.9001 695.297 90.0221C772.613 85.9594 849.387 56.4128 926.703 66.0154C1003.84 75.4334 1081.33 124.185 1158.47 109.966C1235.78 95.7467 1312.56 18.9254 1389.87 3.22876C1467.01 -12.4679 1544.5 32.9601 1583.25 55.8588L1622 78.5727V350.033H1583.25C1544.5 350.033 1467.01 350.033 1389.87 350.033C1312.56 350.033 1235.78 350.033 1158.47 350.033C1081.33 350.033 1003.84 350.033 926.703 350.033C849.387 350.033 772.613 350.033 695.297 350.033C618.162 350.033 540.667 350.033 463.532 350.033C386.216 350.033 309.442 350.033 232.126 350.033C154.991 350.033 77.4956 350.033 38.7478 350.033H0V109.966Z" fill="#3D405B"/>
<path d="M1622 575.642L1583.25 591.263C1544.5 606.884 1467.01 638.127 1389.87 647.326C1312.56 656.699 1235.78 643.855 1158.47 627.366C1081.33 610.876 1003.84 590.742 926.703 594.387C849.387 598.206 772.613 625.977 695.297 616.951C618.162 608.099 540.667 562.277 463.532 575.642C386.216 589.006 309.442 661.212 232.126 675.965C154.991 690.719 77.4955 648.02 38.7478 626.498L-2.67029e-05 605.149V350H38.7478C77.4955 350 154.991 350 232.126 350C309.442 350 386.216 350 463.532 350C540.667 350 618.162 350 695.297 350C772.613 350 849.387 350 926.703 350C1003.84 350 1081.33 350 1158.47 350C1235.78 350 1312.56 350 1389.87 350C1467.01 350 1544.5 350 1583.25 350H1622V575.642Z" fill="#3D405B"/>
</svg>
