<svg width="1440" height="220" viewBox="0 0 1440 220" fill="none" xmlns="http://www.w3.org/2000/svg">
<path d="M0 60.9498L34.4 49.5132C68.8 38.216 137.6 15.3428 206.08 18.4111C274.72 21.4795 342.88 50.2106 411.52 64.4366C480 78.6627 548.8 78.1048 617.28 65.134C685.92 52.1632 754.08 26.5005 822.72 17.2954C891.2 7.95081 960 14.9243 1028.48 13.2507C1097.12 11.7165 1165.28 1.39566 1233.92 0.558834C1302.4 -0.417464 1371.2 7.95079 1405.6 12.1349L1440 16.3191V219.947H1405.6C1371.2 219.947 1302.4 219.947 1233.92 219.947C1165.28 219.947 1097.12 219.947 1028.48 219.947C960 219.947 891.2 219.947 822.72 219.947C754.08 219.947 685.92 219.947 617.28 219.947C548.8 219.947 480 219.947 411.52 219.947C342.88 219.947 274.72 219.947 206.08 219.947C137.6 219.947 68.8 219.947 34.4 219.947H0V60.9498Z" fill="#D7525E"/>
</svg>
