<svg width="543" height="130" viewBox="0 0 543 130" fill="none" xmlns="http://www.w3.org/2000/svg">
<path d="M25.4 35.7C22.8 36.9667 20.8 38.3667 19.4 39.9C18.0667 41.4333 17.0333 43.4333 16.3 45.9C19.2333 46.7667 20.7 48.7333 20.7 51.8C20.7 53.6667 20.1 56.1667 18.9 59.3C16.7667 60.3667 14.5667 60.9 12.3 60.9C10.0333 60.9 8.23333 60.2667 6.9 59C5.63333 57.6667 5 55.8667 5 53.6C5 49.0667 6.63333 44.7 9.9 40.5C13.1667 36.2333 16.8667 34.1 21 34.1C22.6667 34.1 24.1333 34.6333 25.4 35.7ZM45.4 35.7C42.8 36.9667 40.8 38.3667 39.4 39.9C38.0667 41.4333 37.0333 43.4333 36.3 45.9C39.2333 46.7667 40.7 48.7333 40.7 51.8C40.7 53.6667 40.1 56.1667 38.9 59.3C36.7667 60.3667 34.5667 60.9 32.3 60.9C30.0333 60.9 28.2333 60.2667 26.9 59C25.6333 57.6667 25 55.8667 25 53.6C25 49.0667 26.6333 44.7 29.9 40.5C33.1667 36.2333 36.8667 34.1 41 34.1C42.6667 34.1 44.1333 34.6333 45.4 35.7Z" fill="#F4F1DE"/>
<path d="M497 52.2C499.6 50.9333 501.567 49.5333 502.9 48C504.3 46.4667 505.367 44.4667 506.1 42C503.167 41.1333 501.7 39.1667 501.7 36.1C501.7 34.2333 502.3 31.7333 503.5 28.6C505.633 27.5333 507.833 27 510.1 27C512.367 27 514.133 27.6667 515.4 29C516.733 30.2667 517.4 32.0333 517.4 34.3C517.4 38.8333 515.767 43.2333 512.5 47.5C509.233 51.7 505.533 53.8 501.4 53.8C499.733 53.8 498.267 53.2667 497 52.2ZM517 52.2C519.6 50.9333 521.567 49.5333 522.9 48C524.3 46.4667 525.367 44.4667 526.1 42C523.167 41.1333 521.7 39.1667 521.7 36.1C521.7 34.2333 522.3 31.7333 523.5 28.6C525.633 27.5333 527.833 27 530.1 27C532.367 27 534.133 27.6667 535.4 29C536.733 30.2667 537.4 32.0333 537.4 34.3C537.4 38.8333 535.767 43.2333 532.5 47.5C529.233 51.7 525.533 53.8 521.4 53.8C519.733 53.8 518.267 53.2667 517 52.2Z" fill="#F4F1DE"/>
</svg>
