<svg width="928" height="260" viewBox="0 0 928 260" fill="none" xmlns="http://www.w3.org/2000/svg">
<path fill-rule="evenodd" clip-rule="evenodd" d="M114.77 14.0001L108.346 31.3948C100.954 48.9405 87.9139 83.4113 97.5555 104.579C107.004 125.428 139.717 132.186 153.818 150.217C168.113 168.566 162.827 198.34 160.088 213.067L157.542 228.114L106.361 259.115L100.377 249.235C94.5859 239.675 82.8108 220.235 70.8428 200.476C59.0678 181.036 47.2927 161.596 35.5177 142.156C23.5497 122.397 11.7747 102.957 5.98367 93.3968L-0.000352114 83.5175L114.77 14.0001Z" fill="#E07A5F"/>
<path fill-rule="evenodd" clip-rule="evenodd" d="M813.432 245.197L819.649 227.727C826.833 210.095 839.464 175.473 829.572 154.42C819.878 133.685 787.087 127.315 772.773 109.452C758.263 91.2728 763.195 61.4387 765.76 46.6798L768.128 31.6046L818.939 -3.31322e-05L825.039 9.80778C830.943 19.2992 842.947 38.5985 855.148 58.2141C867.153 77.5133 879.157 96.8126 891.161 116.112C903.362 135.727 915.366 155.027 921.27 164.518L927.371 174.326L813.432 245.197Z" fill="#E07A5F"/>
</svg>
