<svg width="786" height="165" viewBox="0 0 786 165" fill="none" xmlns="http://www.w3.org/2000/svg">
<path d="M0 23C0 10.2975 10.2975 0 23 0H763C775.703 0 786 10.2975 786 23V142C786 154.703 775.703 165 763 165H23C10.2974 165 0 154.703 0 142V23Z" fill="#3E4059"/>
<path d="M0 23C0 10.2975 10.2975 0 23 0H763C775.703 0 786 10.2975 786 23V142C786 154.703 775.703 165 763 165H23C10.2974 165 0 154.703 0 142V23Z" fill="#3E4059"/>
<mask id="mask0_803_17897" style="mask-type:alpha" maskUnits="userSpaceOnUse" x="0" y="0" width="786" height="165">
<path d="M0 23C0 10.2975 10.2975 0 23 0H763C775.703 0 786 10.2975 786 23V142C786 154.703 775.703 165 763 165H23C10.2974 165 0 154.703 0 142V23Z" fill="#3E4059"/>
</mask>
<g mask="url(#mask0_803_17897)">
<path fill-rule="evenodd" clip-rule="evenodd" d="M33.7695 -29L27.346 -11.6053C19.954 5.94049 6.91387 40.4113 16.5555 61.5791C26.0041 82.4282 58.7169 89.1859 72.8183 107.217C87.1128 125.566 81.8274 155.34 79.0882 170.067L76.542 185.114L25.3609 216.115L19.3768 206.235C13.5859 196.675 1.81083 177.235 -10.1572 157.476C-21.9322 138.036 -33.7073 118.596 -45.4823 99.1561C-57.4503 79.3974 -69.2253 59.9574 -75.0163 50.3968L-81.0004 40.5174L33.7695 -29Z" fill="#E07A5F"/>
<path fill-rule="evenodd" clip-rule="evenodd" d="M33.7695 -29L27.346 -11.6053C19.954 5.94049 6.91387 40.4113 16.5555 61.5791C26.0041 82.4282 58.7169 89.1859 72.8183 107.217C87.1128 125.566 81.8274 155.34 79.0882 170.067L76.542 185.114L25.3609 216.115L19.3768 206.235C13.5859 196.675 1.81083 177.235 -10.1572 157.476C-21.9322 138.036 -33.7073 118.596 -45.4823 99.1561C-57.4503 79.3974 -69.2253 59.9574 -75.0163 50.3968L-81.0004 40.5174L33.7695 -29Z" fill="#E07A5F"/>
<path fill-rule="evenodd" clip-rule="evenodd" d="M726.65 203.968L734.931 187.376C744.191 170.741 760.91 137.896 753.633 115.804C746.512 94.0493 714.731 83.7668 702.679 64.3066C690.469 44.5085 698.968 15.4882 703.295 1.14698L707.466 -13.5321L761.721 -38.7708L766.593 -28.2982C771.307 -18.1634 780.894 2.44407 790.637 23.3893C800.223 43.9967 809.81 64.6042 819.396 85.2116C829.14 106.157 838.726 126.764 843.44 136.899L848.312 147.372L726.65 203.968Z" fill="#E07A5F"/>
</g>
</svg>
