<svg width="1440" height="261" viewBox="0 0 1440 261" fill="none" xmlns="http://www.w3.org/2000/svg">
<path d="M0 40.5829L34.4 31.0989C68.8 21.4753 137.6 2.50726 206.08 0.415196C274.72 -1.67687 342.88 13.107 411.52 27.7515C480 42.396 548.8 56.901 617.28 55.6458C685.92 54.53 754.08 37.7935 822.72 30.8199C891.2 23.8463 960 26.6358 1028.48 37.0961C1097.12 47.5564 1165.28 65.6877 1233.92 75.1717C1302.4 84.7952 1371.2 85.6321 1405.6 86.19L1440 86.6084V260.947H1405.6C1371.2 260.947 1302.4 260.947 1233.92 260.947C1165.28 260.947 1097.12 260.947 1028.48 260.947C960 260.947 891.2 260.947 822.72 260.947C754.08 260.947 685.92 260.947 617.28 260.947C548.8 260.947 480 260.947 411.52 260.947C342.88 260.947 274.72 260.947 206.08 260.947C137.6 260.947 68.8 260.947 34.4 260.947H0V40.5829Z" fill="#DC665D"/>
</svg>
