<svg width="393" height="171" viewBox="0 0 393 171" fill="none" xmlns="http://www.w3.org/2000/svg">
<rect width="393" height="171" rx="25" fill="#3D405B"/>
<path d="M66.8807 27.3438V25.4545H78.1378V27.3438H73.5994V40H71.4119V27.3438H66.8807ZM80.4549 40V29.0909H82.5785V40H80.4549ZM81.5273 27.4077C81.158 27.4077 80.8408 27.2846 80.5756 27.0384C80.3152 26.7874 80.185 26.4891 80.185 26.1435C80.185 25.7931 80.3152 25.4948 80.5756 25.2486C80.8408 24.9976 81.158 24.8722 81.5273 24.8722C81.8967 24.8722 82.2115 24.9976 82.4719 25.2486C82.7371 25.4948 82.8697 25.7931 82.8697 26.1435C82.8697 26.4891 82.7371 26.7874 82.4719 27.0384C82.2115 27.2846 81.8967 27.4077 81.5273 27.4077ZM85.4354 40V29.0909H87.4737V30.8665H87.6087C87.8359 30.2652 88.2076 29.7964 88.7237 29.4602C89.2398 29.1193 89.8577 28.9489 90.5774 28.9489C91.3066 28.9489 91.9174 29.1193 92.4098 29.4602C92.907 29.8011 93.2739 30.2699 93.5107 30.8665H93.6243C93.8847 30.2841 94.299 29.8201 94.8672 29.4744C95.4354 29.1241 96.1125 28.9489 96.8984 28.9489C97.888 28.9489 98.6953 29.259 99.3203 29.8793C99.95 30.4995 100.265 31.4347 100.265 32.6847V40H98.1413V32.8835C98.1413 32.1449 97.9401 31.6098 97.5376 31.2784C97.1352 30.947 96.6546 30.7812 96.0959 30.7812C95.4046 30.7812 94.8672 30.9943 94.4837 31.4205C94.1001 31.8419 93.9084 32.384 93.9084 33.0469V40H91.7919V32.7486C91.7919 32.1567 91.6072 31.6809 91.2379 31.321C90.8686 30.9612 90.388 30.7812 89.7962 30.7812C89.3937 30.7812 89.022 30.8878 88.6811 31.1009C88.3449 31.3092 88.0727 31.6004 87.8643 31.9744C87.6607 32.3485 87.5589 32.7817 87.5589 33.2741V40H85.4354ZM107.813 40.2202C106.738 40.2202 105.812 39.9905 105.036 39.5312C104.264 39.0672 103.667 38.4162 103.246 37.5781C102.829 36.7353 102.621 35.7481 102.621 34.6165C102.621 33.4991 102.829 32.5142 103.246 31.6619C103.667 30.8097 104.255 30.1444 105.007 29.6662C105.765 29.188 106.65 28.9489 107.664 28.9489C108.279 28.9489 108.876 29.0507 109.453 29.2543C110.031 29.4579 110.55 29.7775 111.009 30.2131C111.468 30.6487 111.83 31.2145 112.096 31.9105C112.361 32.6018 112.493 33.4422 112.493 34.4318V35.1847H103.821V33.5938H110.412C110.412 33.035 110.299 32.5402 110.071 32.1094C109.844 31.6738 109.525 31.3305 109.113 31.0795C108.705 30.8286 108.227 30.7031 107.678 30.7031C107.081 30.7031 106.56 30.8499 106.115 31.1435C105.675 31.4323 105.334 31.8111 105.093 32.2798C104.856 32.7438 104.738 33.2481 104.738 33.7926V35.0355C104.738 35.7647 104.865 36.3849 105.121 36.8963C105.382 37.4077 105.744 37.7983 106.208 38.0682C106.672 38.3333 107.214 38.4659 107.834 38.4659C108.237 38.4659 108.604 38.4091 108.935 38.2955C109.266 38.1771 109.553 38.0019 109.794 37.7699C110.036 37.5379 110.221 37.2514 110.348 36.9105L112.358 37.2727C112.197 37.8646 111.908 38.383 111.492 38.8281C111.08 39.2685 110.561 39.6117 109.936 39.858C109.316 40.0994 108.608 40.2202 107.813 40.2202ZM114.849 40V29.0909H116.902V30.8239H117.016C117.214 30.2367 117.565 29.7751 118.067 29.4389C118.573 29.098 119.146 28.9276 119.786 28.9276C119.918 28.9276 120.074 28.9323 120.254 28.9418C120.439 28.9512 120.583 28.9631 120.688 28.9773V31.0085C120.602 30.9848 120.451 30.9588 120.233 30.9304C120.015 30.8973 119.797 30.8807 119.58 30.8807C119.078 30.8807 118.63 30.9872 118.237 31.2003C117.849 31.4086 117.541 31.6998 117.314 32.0739C117.087 32.4432 116.973 32.8646 116.973 33.3381V40H114.849ZM135.922 29.2756C135.846 28.6032 135.534 28.0824 134.984 27.7131C134.435 27.339 133.744 27.152 132.911 27.152C132.314 27.152 131.798 27.2467 131.362 27.4361C130.927 27.6207 130.588 27.8764 130.347 28.2031C130.11 28.5251 129.991 28.892 129.991 29.304C129.991 29.6496 130.072 29.9479 130.233 30.1989C130.399 30.4498 130.614 30.6605 130.879 30.831C131.149 30.9967 131.438 31.1364 131.746 31.25C132.054 31.3589 132.349 31.4489 132.634 31.5199L134.054 31.8892C134.518 32.0028 134.994 32.1567 135.482 32.3509C135.969 32.545 136.421 32.8007 136.838 33.1179C137.255 33.4351 137.591 33.8281 137.847 34.2969C138.107 34.7656 138.237 35.3267 138.237 35.9801C138.237 36.804 138.024 37.5355 137.598 38.1747C137.177 38.8139 136.563 39.3182 135.759 39.6875C134.958 40.0568 133.99 40.2415 132.854 40.2415C131.765 40.2415 130.822 40.0687 130.027 39.723C129.232 39.3774 128.609 38.8873 128.159 38.2528C127.709 37.6136 127.461 36.8561 127.413 35.9801H129.615C129.658 36.5057 129.828 36.9437 130.126 37.294C130.429 37.6397 130.815 37.8977 131.284 38.0682C131.758 38.2339 132.276 38.3168 132.839 38.3168C133.46 38.3168 134.011 38.2197 134.494 38.0256C134.982 37.8267 135.366 37.5521 135.645 37.2017C135.924 36.8466 136.064 36.4323 136.064 35.9588C136.064 35.5279 135.941 35.1752 135.695 34.9006C135.453 34.6259 135.124 34.3987 134.707 34.2188C134.295 34.0388 133.829 33.8802 133.308 33.7429L131.589 33.2741C130.425 32.9569 129.501 32.4905 128.82 31.875C128.143 31.2595 127.804 30.4451 127.804 29.4318C127.804 28.5937 128.031 27.8622 128.486 27.2372C128.94 26.6122 129.556 26.1269 130.332 25.7812C131.109 25.4309 131.985 25.2557 132.96 25.2557C133.945 25.2557 134.814 25.4285 135.567 25.7741C136.324 26.1198 136.921 26.5956 137.357 27.2017C137.792 27.803 138.019 28.4943 138.038 29.2756H135.922ZM145.284 40.2202C144.262 40.2202 143.369 39.9858 142.607 39.517C141.845 39.0483 141.253 38.3925 140.831 37.5497C140.41 36.7069 140.199 35.7221 140.199 34.5952C140.199 33.4635 140.41 32.474 140.831 31.6264C141.253 30.7789 141.845 30.1207 142.607 29.652C143.369 29.1832 144.262 28.9489 145.284 28.9489C146.307 28.9489 147.2 29.1832 147.962 29.652C148.724 30.1207 149.316 30.7789 149.738 31.6264C150.159 32.474 150.37 33.4635 150.37 34.5952C150.37 35.7221 150.159 36.7069 149.738 37.5497C149.316 38.3925 148.724 39.0483 147.962 39.517C147.2 39.9858 146.307 40.2202 145.284 40.2202ZM145.292 38.4375C145.954 38.4375 146.504 38.2623 146.939 37.9119C147.375 37.5616 147.697 37.0952 147.905 36.5128C148.118 35.9304 148.225 35.2888 148.225 34.5881C148.225 33.892 148.118 33.2528 147.905 32.6705C147.697 32.0833 147.375 31.6122 146.939 31.2571C146.504 30.902 145.954 30.7244 145.292 30.7244C144.624 30.7244 144.07 30.902 143.63 31.2571C143.194 31.6122 142.87 32.0833 142.657 32.6705C142.448 33.2528 142.344 33.892 142.344 34.5881C142.344 35.2888 142.448 35.9304 142.657 36.5128C142.87 37.0952 143.194 37.5616 143.63 37.9119C144.07 38.2623 144.624 38.4375 145.292 38.4375ZM159.651 35.4759V29.0909H161.781V40H159.693V38.1108H159.58C159.329 38.6932 158.926 39.1785 158.372 39.5668C157.823 39.9503 157.139 40.142 156.32 40.142C155.619 40.142 154.999 39.9882 154.459 39.6804C153.924 39.3679 153.502 38.9062 153.195 38.2955C152.892 37.6847 152.74 36.9295 152.74 36.0298V29.0909H154.864V35.7741C154.864 36.5175 155.07 37.1094 155.482 37.5497C155.893 37.9901 156.429 38.2102 157.087 38.2102C157.484 38.2102 157.88 38.1108 158.273 37.9119C158.67 37.7131 159 37.4124 159.26 37.0099C159.525 36.6075 159.655 36.0961 159.651 35.4759ZM166.758 33.5227V40H164.635V29.0909H166.673V30.8665H166.808C167.059 30.2888 167.452 29.8248 167.987 29.4744C168.527 29.1241 169.206 28.9489 170.025 28.9489C170.769 28.9489 171.42 29.1051 171.978 29.4176C172.537 29.7254 172.97 30.1847 173.278 30.7955C173.586 31.4062 173.74 32.1615 173.74 33.0611V40H171.616V33.3168C171.616 32.526 171.41 31.9081 170.998 31.4631C170.586 31.0133 170.02 30.7884 169.301 30.7884C168.808 30.7884 168.37 30.8949 167.987 31.108C167.608 31.321 167.307 31.6335 167.085 32.0455C166.867 32.4527 166.758 32.9451 166.758 33.5227ZM180.672 40.2131C179.791 40.2131 179.005 39.9882 178.314 39.5384C177.627 39.0838 177.087 38.4375 176.694 37.5994C176.306 36.7566 176.112 35.7457 176.112 34.5668C176.112 33.3878 176.308 32.3793 176.701 31.5412C177.099 30.7031 177.644 30.0616 178.335 29.6165C179.026 29.1714 179.81 28.9489 180.686 28.9489C181.363 28.9489 181.907 29.0625 182.319 29.2898C182.736 29.5123 183.058 29.7727 183.285 30.071C183.517 30.3693 183.697 30.6321 183.825 30.8594H183.953V25.4545H186.076V40H184.002V38.3026H183.825C183.697 38.5346 183.512 38.7997 183.271 39.098C183.034 39.3963 182.708 39.6567 182.291 39.8793C181.874 40.1018 181.334 40.2131 180.672 40.2131ZM181.14 38.402C181.751 38.402 182.267 38.241 182.689 37.919C183.115 37.5923 183.437 37.1402 183.654 36.5625C183.877 35.9848 183.988 35.3125 183.988 34.5455C183.988 33.7879 183.879 33.125 183.662 32.5568C183.444 31.9886 183.124 31.5459 182.703 31.2287C182.281 30.9115 181.761 30.7528 181.14 30.7528C180.501 30.7528 179.968 30.9186 179.542 31.25C179.116 31.5814 178.794 32.0336 178.576 32.6065C178.363 33.1795 178.257 33.8258 178.257 34.5455C178.257 35.2746 178.366 35.9304 178.583 36.5128C178.801 37.0952 179.123 37.5568 179.549 37.8977C179.98 38.2339 180.511 38.402 181.14 38.402ZM190.506 40.1349C190.118 40.1349 189.784 39.9976 189.505 39.723C189.226 39.4437 189.086 39.1075 189.086 38.7145C189.086 38.3262 189.226 37.9948 189.505 37.7202C189.784 37.4408 190.118 37.3011 190.506 37.3011C190.895 37.3011 191.228 37.4408 191.508 37.7202C191.787 37.9948 191.927 38.3262 191.927 38.7145C191.927 38.9749 191.861 39.214 191.728 39.4318C191.6 39.6449 191.43 39.8153 191.217 39.9432C191.004 40.071 190.767 40.1349 190.506 40.1349ZM190.506 32.1946C190.118 32.1946 189.784 32.0549 189.505 31.7756C189.226 31.4962 189.086 31.1624 189.086 30.7741C189.086 30.3859 189.226 30.0545 189.505 29.7798C189.784 29.5005 190.118 29.3608 190.506 29.3608C190.895 29.3608 191.228 29.5005 191.508 29.7798C191.787 30.0545 191.927 30.3859 191.927 30.7741C191.927 31.0346 191.861 31.2737 191.728 31.4915C191.6 31.7045 191.43 31.875 191.217 32.0028C191.004 32.1307 190.767 32.1946 190.506 32.1946Z" fill="white"/>
<path d="M66.8807 92.3438V90.4545H78.1378V92.3438H73.5994V105H71.4119V92.3438H66.8807ZM80.4549 105V94.0909H82.5785V105H80.4549ZM81.5273 92.4077C81.158 92.4077 80.8408 92.2846 80.5756 92.0384C80.3152 91.7874 80.185 91.4891 80.185 91.1435C80.185 90.7931 80.3152 90.4948 80.5756 90.2486C80.8408 89.9976 81.158 89.8722 81.5273 89.8722C81.8967 89.8722 82.2115 89.9976 82.4719 90.2486C82.7371 90.4948 82.8697 90.7931 82.8697 91.1435C82.8697 91.4891 82.7371 91.7874 82.4719 92.0384C82.2115 92.2846 81.8967 92.4077 81.5273 92.4077ZM85.4354 105V94.0909H87.4737V95.8665H87.6087C87.8359 95.2652 88.2076 94.7964 88.7237 94.4602C89.2398 94.1193 89.8577 93.9489 90.5774 93.9489C91.3066 93.9489 91.9174 94.1193 92.4098 94.4602C92.907 94.8011 93.2739 95.2699 93.5107 95.8665H93.6243C93.8847 95.2841 94.299 94.8201 94.8672 94.4744C95.4354 94.1241 96.1125 93.9489 96.8984 93.9489C97.888 93.9489 98.6953 94.259 99.3203 94.8793C99.95 95.4995 100.265 96.4347 100.265 97.6847V105H98.1413V97.8835C98.1413 97.1449 97.9401 96.6098 97.5376 96.2784C97.1352 95.947 96.6546 95.7812 96.0959 95.7812C95.4046 95.7812 94.8672 95.9943 94.4837 96.4205C94.1001 96.8419 93.9084 97.384 93.9084 98.0469V105H91.7919V97.7486C91.7919 97.1567 91.6072 96.6809 91.2379 96.321C90.8686 95.9612 90.388 95.7812 89.7962 95.7812C89.3937 95.7812 89.022 95.8878 88.6811 96.1009C88.3449 96.3092 88.0727 96.6004 87.8643 96.9744C87.6607 97.3485 87.5589 97.7817 87.5589 98.2741V105H85.4354ZM107.813 105.22C106.738 105.22 105.812 104.991 105.036 104.531C104.264 104.067 103.667 103.416 103.246 102.578C102.829 101.735 102.621 100.748 102.621 99.6165C102.621 98.4991 102.829 97.5142 103.246 96.6619C103.667 95.8097 104.255 95.1444 105.007 94.6662C105.765 94.188 106.65 93.9489 107.664 93.9489C108.279 93.9489 108.876 94.0507 109.453 94.2543C110.031 94.4579 110.55 94.7775 111.009 95.2131C111.468 95.6487 111.83 96.2145 112.096 96.9105C112.361 97.6018 112.493 98.4422 112.493 99.4318V100.185H103.821V98.5938H110.412C110.412 98.035 110.299 97.5402 110.071 97.1094C109.844 96.6738 109.525 96.3305 109.113 96.0795C108.705 95.8286 108.227 95.7031 107.678 95.7031C107.081 95.7031 106.56 95.8499 106.115 96.1435C105.675 96.4323 105.334 96.8111 105.093 97.2798C104.856 97.7438 104.738 98.2481 104.738 98.7926V100.036C104.738 100.765 104.865 101.385 105.121 101.896C105.382 102.408 105.744 102.798 106.208 103.068C106.672 103.333 107.214 103.466 107.834 103.466C108.237 103.466 108.604 103.409 108.935 103.295C109.266 103.177 109.553 103.002 109.794 102.77C110.036 102.538 110.221 102.251 110.348 101.911L112.358 102.273C112.197 102.865 111.908 103.383 111.492 103.828C111.08 104.268 110.561 104.612 109.936 104.858C109.316 105.099 108.608 105.22 107.813 105.22ZM114.849 105V94.0909H116.902V95.8239H117.016C117.214 95.2367 117.565 94.7751 118.067 94.4389C118.573 94.098 119.146 93.9276 119.786 93.9276C119.918 93.9276 120.074 93.9323 120.254 93.9418C120.439 93.9512 120.583 93.9631 120.688 93.9773V96.0085C120.602 95.9848 120.451 95.9588 120.233 95.9304C120.015 95.8973 119.797 95.8807 119.58 95.8807C119.078 95.8807 118.63 95.9872 118.237 96.2003C117.849 96.4086 117.541 96.6998 117.314 97.0739C117.087 97.4432 116.973 97.8646 116.973 98.3381V105H114.849ZM129.26 90.4545L133.308 102.301H133.472L137.52 90.4545H139.892L134.658 105H132.122L126.888 90.4545H129.26ZM145.324 105.22C144.301 105.22 143.408 104.986 142.646 104.517C141.884 104.048 141.292 103.393 140.87 102.55C140.449 101.707 140.238 100.722 140.238 99.5952C140.238 98.4635 140.449 97.474 140.87 96.6264C141.292 95.7789 141.884 95.1207 142.646 94.652C143.408 94.1832 144.301 93.9489 145.324 93.9489C146.346 93.9489 147.239 94.1832 148.001 94.652C148.763 95.1207 149.355 95.7789 149.777 96.6264C150.198 97.474 150.409 98.4635 150.409 99.5952C150.409 100.722 150.198 101.707 149.777 102.55C149.355 103.393 148.763 104.048 148.001 104.517C147.239 104.986 146.346 105.22 145.324 105.22ZM145.331 103.438C145.993 103.438 146.543 103.262 146.978 102.912C147.414 102.562 147.736 102.095 147.944 101.513C148.157 100.93 148.264 100.289 148.264 99.5881C148.264 98.892 148.157 98.2528 147.944 97.6705C147.736 97.0833 147.414 96.6122 146.978 96.2571C146.543 95.902 145.993 95.7244 145.331 95.7244C144.663 95.7244 144.109 95.902 143.669 96.2571C143.233 96.6122 142.909 97.0833 142.696 97.6705C142.487 98.2528 142.383 98.892 142.383 99.5881C142.383 100.289 142.487 100.93 142.696 101.513C142.909 102.095 143.233 102.562 143.669 102.912C144.109 103.262 144.663 103.438 145.331 103.438ZM154.903 90.4545V105H152.779V90.4545H154.903ZM164.67 100.476V94.0909H166.801V105H164.713V103.111H164.599C164.348 103.693 163.946 104.179 163.392 104.567C162.842 104.95 162.158 105.142 161.339 105.142C160.638 105.142 160.018 104.988 159.478 104.68C158.943 104.368 158.522 103.906 158.214 103.295C157.911 102.685 157.76 101.929 157.76 101.03V94.0909H159.883V100.774C159.883 101.518 160.089 102.109 160.501 102.55C160.913 102.99 161.448 103.21 162.106 103.21C162.504 103.21 162.899 103.111 163.292 102.912C163.69 102.713 164.019 102.412 164.279 102.01C164.545 101.607 164.675 101.096 164.67 100.476ZM169.654 105V94.0909H171.692V95.8665H171.827C172.055 95.2652 172.426 94.7964 172.942 94.4602C173.459 94.1193 174.076 93.9489 174.796 93.9489C175.525 93.9489 176.136 94.1193 176.629 94.4602C177.126 94.8011 177.493 95.2699 177.729 95.8665H177.843C178.103 95.2841 178.518 94.8201 179.086 94.4744C179.654 94.1241 180.331 93.9489 181.117 93.9489C182.107 93.9489 182.914 94.259 183.539 94.8793C184.169 95.4995 184.484 96.4347 184.484 97.6847V105H182.36V97.8835C182.36 97.1449 182.159 96.6098 181.756 96.2784C181.354 95.947 180.873 95.7812 180.315 95.7812C179.623 95.7812 179.086 95.9943 178.702 96.4205C178.319 96.8419 178.127 97.384 178.127 98.0469V105H176.011V97.7486C176.011 97.1567 175.826 96.6809 175.457 96.321C175.087 95.9612 174.607 95.7812 174.015 95.7812C173.612 95.7812 173.241 95.8878 172.9 96.1009C172.564 96.3092 172.291 96.6004 172.083 96.9744C171.879 97.3485 171.778 97.7817 171.778 98.2741V105H169.654ZM192.032 105.22C190.957 105.22 190.031 104.991 189.255 104.531C188.483 104.067 187.886 103.416 187.465 102.578C187.048 101.735 186.84 100.748 186.84 99.6165C186.84 98.4991 187.048 97.5142 187.465 96.6619C187.886 95.8097 188.473 95.1444 189.226 94.6662C189.984 94.188 190.869 93.9489 191.882 93.9489C192.498 93.9489 193.095 94.0507 193.672 94.2543C194.25 94.4579 194.768 94.7775 195.228 95.2131C195.687 95.6487 196.049 96.2145 196.314 96.9105C196.579 97.6018 196.712 98.4422 196.712 99.4318V100.185H188.04V98.5938H194.631C194.631 98.035 194.517 97.5402 194.29 97.1094C194.063 96.6738 193.743 96.3305 193.331 96.0795C192.924 95.8286 192.446 95.7031 191.897 95.7031C191.3 95.7031 190.779 95.8499 190.334 96.1435C189.894 96.4323 189.553 96.8111 189.311 97.2798C189.075 97.7438 188.956 98.2481 188.956 98.7926V100.036C188.956 100.765 189.084 101.385 189.34 101.896C189.6 102.408 189.962 102.798 190.426 103.068C190.891 103.333 191.433 103.466 192.053 103.466C192.455 103.466 192.822 103.409 193.154 103.295C193.485 103.177 193.772 103.002 194.013 102.77C194.255 102.538 194.439 102.251 194.567 101.911L196.577 102.273C196.416 102.865 196.127 103.383 195.711 103.828C195.299 104.268 194.78 104.612 194.155 104.858C193.535 105.099 192.827 105.22 192.032 105.22ZM200.467 105.135C200.079 105.135 199.745 104.998 199.466 104.723C199.187 104.444 199.047 104.107 199.047 103.714C199.047 103.326 199.187 102.995 199.466 102.72C199.745 102.441 200.079 102.301 200.467 102.301C200.856 102.301 201.189 102.441 201.469 102.72C201.748 102.995 201.888 103.326 201.888 103.714C201.888 103.975 201.821 104.214 201.689 104.432C201.561 104.645 201.391 104.815 201.178 104.943C200.964 105.071 200.728 105.135 200.467 105.135ZM200.467 97.1946C200.079 97.1946 199.745 97.0549 199.466 96.7756C199.187 96.4962 199.047 96.1624 199.047 95.7741C199.047 95.3859 199.187 95.0545 199.466 94.7798C199.745 94.5005 200.079 94.3608 200.467 94.3608C200.856 94.3608 201.189 94.5005 201.469 94.7798C201.748 95.0545 201.888 95.3859 201.888 95.7741C201.888 96.0346 201.821 96.2737 201.689 96.4915C201.561 96.7045 201.391 96.875 201.178 97.0028C200.964 97.1307 200.728 97.1946 200.467 97.1946Z" fill="white"/>
<path d="M72 117.5C71.1716 117.5 70.5 118.172 70.5 119C70.5 119.828 71.1716 120.5 72 120.5L72 117.5ZM310 119C310 123.418 313.582 127 318 127C322.418 127 326 123.418 326 119C326 114.582 322.418 111 318 111C313.582 111 310 114.582 310 119ZM72 120.5L318 120.5L318 117.5L72 117.5L72 120.5Z" fill="#81B29A"/>
</svg>
