<svg width="57" height="57" viewBox="0 0 57 57" fill="none" xmlns="http://www.w3.org/2000/svg">
<ellipse cx="28.3171" cy="28.3724" rx="24.2718" ry="24.2051" fill="#81B29A"/>
<ellipse cx="28.3171" cy="27.6836" rx="16.1812" ry="15.8192" fill="#EFECEC"/>
<rect x="24.2718" y="0.133301" width="8.0906" height="8.06837" rx="1" fill="#81B29A"/>
<rect y="24.3381" width="8.0906" height="8.06837" rx="1" fill="#81B29A"/>
<rect width="8.08455" height="8.07443" rx="1" transform="matrix(0.853711 0.520748 -0.522838 0.852432 6.24424 10.2192)" fill="#81B29A"/>
<rect width="8.07345" height="8.08553" rx="1" transform="matrix(0.478941 0.877847 -0.878951 0.476911 9.20439 34.4983)" fill="#81B29A"/>
<rect width="8.07345" height="8.08553" rx="1" transform="matrix(0.478941 -0.877847 0.878951 0.476911 44.5732 41.5863)" fill="#81B29A"/>
<rect width="8.08455" height="8.07442" rx="1" transform="matrix(0.853734 -0.52071 0.5228 0.852456 44.4983 14.4279)" fill="#81B29A"/>
<rect x="48.5436" y="24.3381" width="8.0906" height="8.06837" rx="1" fill="#81B29A"/>
<rect width="8.08469" height="8.07428" rx="1" transform="matrix(0.857413 -0.514628 0.516712 0.856159 10.1133 6.31075)" fill="#81B29A"/>
<rect width="8.08469" height="8.07428" rx="1" transform="matrix(0.857433 0.514595 -0.516678 0.856179 40.5795 2.15028)" fill="#81B29A"/>
<rect width="8.0906" height="8.06837" rx="1" transform="matrix(-0.99999 0.00438805 -0.00441226 -0.99999 32.398 56.6118)" fill="#81B29A"/>
<rect width="8.08461" height="8.07437" rx="1" transform="matrix(-0.855144 0.518391 -0.520479 -0.853875 47.5238 50.3977)" fill="#81B29A"/>
<rect width="8.08478" height="8.0742" rx="1" transform="matrix(-0.859686 -0.510822 0.512901 -0.858448 17.0636 54.5639)" fill="#81B29A"/>
</svg>
