<svg width="1440" height="311" viewBox="0 0 1440 311" fill="none" xmlns="http://www.w3.org/2000/svg">
<path d="M0 27.8209L34.4 21.5447C68.8 15.2685 137.6 2.71607 206.08 5.92391C274.72 9.27122 342.88 28.2393 411.52 38.2812C480 48.3232 548.8 49.16 617.28 54.5994C685.92 59.8993 754.08 69.6623 822.72 58.7835C891.2 47.7653 960 16.2448 1028.48 5.08712C1097.12 -6.07058 1165.28 3.13452 1233.92 13.4554C1302.4 23.6368 1371.2 34.7945 1405.6 40.3733L1440 45.9522V310.947H1405.6C1371.2 310.947 1302.4 310.947 1233.92 310.947C1165.28 310.947 1097.12 310.947 1028.48 310.947C960 310.947 891.2 310.947 822.72 310.947C754.08 310.947 685.92 310.947 617.28 310.947C548.8 310.947 480 310.947 411.52 310.947C342.88 310.947 274.72 310.947 206.08 310.947C137.6 310.947 68.8 310.947 34.4 310.947H0V27.8209Z" fill="#E07A5F"/>
</svg>
