<svg width="1440" height="134" viewBox="0 0 1440 134" fill="none" xmlns="http://www.w3.org/2000/svg">
<path d="M0 34L34.3 32.5C68.7 31 137.3 28 205.8 27.7C274.3 27.3 342.7 29.7 411.2 36.8C479.7 44 548.3 56 617 51.5C685.7 47 754.3 26 823 18.7C891.7 11.3 960.3 17.7 1028.8 22.5C1097.3 27.3 1165.7 30.7 1234.2 26.7C1302.7 22.7 1371.3 11.3 1405.7 5.70001L1440 0V135H1405.7C1371.3 135 1302.7 135 1234.2 135C1165.7 135 1097.3 135 1028.8 135C960.3 135 891.7 135 823 135C754.3 135 685.7 135 617 135C548.3 135 479.7 135 411.2 135C342.7 135 274.3 135 205.8 135C137.3 135 68.7 135 34.3 135H0V34Z" fill="#75B294"/>
<path d="M0 98L34.3 97.3C68.7 96.7 137.3 95.3 205.8 88.8C274.3 82.3 342.7 70.7 411.2 65.5C479.7 60.3 548.3 61.7 617 64.7C685.7 67.7 754.3 72.3 823 70.8C891.7 69.3 960.3 61.7 1028.8 65.2C1097.3 68.7 1165.7 83.3 1234.2 91.7C1302.7 100 1371.3 102 1405.7 103L1440 104V135H1405.7C1371.3 135 1302.7 135 1234.2 135C1165.7 135 1097.3 135 1028.8 135C960.3 135 891.7 135 823 135C754.3 135 685.7 135 617 135C548.3 135 479.7 135 411.2 135C342.7 135 274.3 135 205.8 135C137.3 135 68.7 135 34.3 135H0V98Z" fill="#609F80"/>
</svg>
