<svg width="1440" height="208" viewBox="0 0 1440 208" fill="none" xmlns="http://www.w3.org/2000/svg">
<path d="M0 60L34.3 60.5C68.7 61 137.3 62 205.8 61.5C274.3 61 342.7 59 411.2 54.5C479.7 50 548.3 43 617 43.2C685.7 43.3 754.3 50.7 823 51.3C891.7 52 960.3 46 1028.8 45.2C1097.3 44.3 1165.7 48.7 1234.2 42C1302.7 35.3 1371.3 17.7 1405.7 8.79999L1440 0V209H1405.7C1371.3 209 1302.7 209 1234.2 209C1165.7 209 1097.3 209 1028.8 209C960.3 209 891.7 209 823 209C754.3 209 685.7 209 617 209C548.3 209 479.7 209 411.2 209C342.7 209 274.3 209 205.8 209C137.3 209 68.7 209 34.3 209H0V60Z" fill="#A1D8BD"/>
</svg>
