<svg width="1440" height="273" viewBox="0 0 1440 273" fill="none" xmlns="http://www.w3.org/2000/svg">
<path d="M0 46L34.3 37.5C68.7 29 137.3 12 205.8 4.79999C274.3 -2.30001 342.7 0.300004 411.2 9C479.7 17.7 548.3 32.3 617 49C685.7 65.7 754.3 84.3 823 78.2C891.7 72 960.3 41 1028.8 38.5C1097.3 36 1165.7 62 1234.2 77.2C1302.7 92.3 1371.3 96.7 1405.7 98.8L1440 101V274H1405.7C1371.3 274 1302.7 274 1234.2 274C1165.7 274 1097.3 274 1028.8 274C960.3 274 891.7 274 823 274C754.3 274 685.7 274 617 274C548.3 274 479.7 274 411.2 274C342.7 274 274.3 274 205.8 274C137.3 274 68.7 274 34.3 274H0V46Z" fill="#B7ECD2"/>
</svg>
