<svg width="1440" height="168" viewBox="0 0 1440 168" fill="none" xmlns="http://www.w3.org/2000/svg">
<path d="M0 0L34.3 2.79999C68.7 5.69999 137.3 11.3 205.8 15.3C274.3 19.3 342.7 21.7 411.2 23.7C479.7 25.7 548.3 27.3 617 32.2C685.7 37 754.3 45 823 42.2C891.7 39.3 960.3 25.7 1028.8 16.2C1097.3 6.70001 1165.7 1.3 1234.2 3C1302.7 4.7 1371.3 13.3 1405.7 17.7L1440 22V169H1405.7C1371.3 169 1302.7 169 1234.2 169C1165.7 169 1097.3 169 1028.8 169C960.3 169 891.7 169 823 169C754.3 169 685.7 169 617 169C548.3 169 479.7 169 411.2 169C342.7 169 274.3 169 205.8 169C137.3 169 68.7 169 34.3 169H0V0Z" fill="#8BC5A8"/>
</svg>
